<?xml version="1.0" encoding="UTF-8" standalone="no"?>
<!-- Created with Inkscape (http://www.inkscape.org/) -->

<svg
   xmlns:dc="http://purl.org/dc/elements/1.1/"
   xmlns:cc="http://creativecommons.org/ns#"
   xmlns:rdf="http://www.w3.org/1999/02/22-rdf-syntax-ns#"
   xmlns:svg="http://www.w3.org/2000/svg"
   xmlns="http://www.w3.org/2000/svg"
   xmlns:sodipodi="http://sodipodi.sourceforge.net/DTD/sodipodi-0.dtd"
   xmlns:inkscape="http://www.inkscape.org/namespaces/inkscape"
   width="20mm"
   height="20mm"
   viewBox="0 0 20 20"
   version="1.1"
   id="svg8"
   inkscape:version="0.92.5 (2060ec1f9f, 2020-04-08)"
   sodipodi:docname="epfl_square.svg">
  <defs
     id="defs2">
    <style
       id="style2">.cls-1{fill:red;}</style>
  </defs>
  <sodipodi:namedview
     id="base"
     pagecolor="#ffffff"
     bordercolor="#666666"
     borderopacity="1.0"
     inkscape:pageopacity="0.0"
     inkscape:pageshadow="2"
     inkscape:zoom="7.9195959"
     inkscape:cx="28.765397"
     inkscape:cy="34.690141"
     inkscape:document-units="mm"
     inkscape:current-layer="layer1"
     showgrid="false"
     inkscape:window-width="3840"
     inkscape:window-height="2096"
     inkscape:window-x="0"
     inkscape:window-y="27"
     inkscape:window-maximized="1" />
  <metadata
     id="metadata5">
    <rdf:RDF>
      <cc:Work
         rdf:about="">
        <dc:format>image/svg+xml</dc:format>
        <dc:type
           rdf:resource="http://purl.org/dc/dcmitype/StillImage" />
        <dc:title></dc:title>
      </cc:Work>
    </rdf:RDF>
  </metadata>
  <g
     inkscape:label="Layer 1"
     inkscape:groupmode="layer"
     id="layer1"
     transform="translate(0,-277)">
    <g
       id="g3790"
       transform="matrix(0.10961156,0,0,0.10961156,0.02713002,283.77055)">
      <path
         style="fill:#ff0000"
         d="M 0,21.6 H 11.43 V 9.8 H 38.34 V 0 H 0 Z"
         id="polygon8"
         inkscape:connector-curvature="0" />
      <path
         style="fill:#ff0000"
         d="M 0,53 H 38.34 V 43.2 H 11.43 V 31.4 H 0 Z"
         id="polygon10"
         inkscape:connector-curvature="0" />
      <path
         style="fill:#ff0000"
         d="m 11.43,21.6 h 24.610001 v 9.800001 H 11.43 Z"
         id="rect12"
         inkscape:connector-curvature="0" />
      <path
         class="cls-1"
         d="M 86,4.87 A 16.12,16.12 0 0 0 80.32,1.34 23.76,23.76 0 0 0 71.82,0 H 48.14 V 53 H 59.57 V 31.4 h 12.25 a 23.76,23.76 0 0 0 8.46,-1.34 16.12,16.12 0 0 0 5.72,-3.53 13.43,13.43 0 0 0 3.19,-5 17.38,17.38 0 0 0 0,-11.62 A 13.52,13.52 0 0 0 86,4.87 Z m -8,13.86 a 5.7,5.7 0 0 1 -2.26,1.8 11.33,11.33 0 0 1 -3.27,0.85 32,32 0 0 1 -3.86,0.22 H 59.57 V 9.8 h 9.05 a 32,32 0 0 1 3.86,0.22 11,11 0 0 1 3.27,0.86 5.59,5.59 0 0 1 2.25,1.79 5,5 0 0 1 0.86,3 5,5 0 0 1 -0.86,3.06 z"
         id="path14"
         style="fill:#ff0000"
         inkscape:connector-curvature="0" />
      <path
         style="fill:#ff0000"
         d="M 155.47,43.2 V 0 h -11.43 v 53 h 38.34 v -9.8 z"
         id="polygon16"
         inkscape:connector-curvature="0" />
      <path
         style="fill:#ff0000"
         d="m 97.42,21.6 h 11.43 V 9.8 h 26.91 V 0 H 97.42 Z"
         id="polygon18"
         inkscape:connector-curvature="0" />
      <path
         style="fill:#ff0000"
         d="M 97.419998,31.4 H 108.85 V 53 H 97.419998 Z"
         id="rect20"
         inkscape:connector-curvature="0" />
      <path
         style="fill:#ff0000"
         d="m 108.85,21.6 h 24.61 v 9.800001 h -24.61 z"
         id="rect22"
         inkscape:connector-curvature="0" />
    </g>
  </g>
</svg>
