<?xml version="1.0" encoding="UTF-8" standalone="no"?>
<!-- Created with Inkscape (http://www.inkscape.org/) -->

<svg
   version="1.1"
   id="svg2"
   xml:space="preserve"
   width="1097.2933"
   height="1097.2933"
   viewBox="0 0 1097.2933 1097.2933"
   sodipodi:docname="ESMUC.svg"
   inkscape:version="1.1.2 (0a00cf5339, 2022-02-04)"
   xmlns:inkscape="http://www.inkscape.org/namespaces/inkscape"
   xmlns:sodipodi="http://sodipodi.sourceforge.net/DTD/sodipodi-0.dtd"
   xmlns="http://www.w3.org/2000/svg"
   xmlns:svg="http://www.w3.org/2000/svg"><defs
     id="defs6" /><sodipodi:namedview
     id="namedview4"
     pagecolor="#ffffff"
     bordercolor="#666666"
     borderopacity="1.0"
     inkscape:pageshadow="2"
     inkscape:pageopacity="0.0"
     inkscape:pagecheckerboard="0"
     showgrid="false"
     inkscape:zoom="1.2539947"
     inkscape:cx="610.84789"
     inkscape:cy="461.32572"
     inkscape:window-width="3840"
     inkscape:window-height="2096"
     inkscape:window-x="0"
     inkscape:window-y="27"
     inkscape:window-maximized="1"
     inkscape:current-layer="g8" /><g
     id="g8"
     inkscape:groupmode="layer"
     inkscape:label="ink_ext_XXXXXX"
     transform="matrix(1.3333333,0,0,-1.3333333,0,266.09333)"><g
       id="g10"
       transform="matrix(0.1,0,0,0.1,0.53537406,-327.87759)"><path
         d="m 685.938,1901.91 c -85.426,0 -164.598,-35.69 -237.5,-107.03 -72.926,-71.36 -109.375,-145.58 -109.375,-222.66 0,-21.87 6.761,-38.55 20.312,-50 13.523,-11.47 33.84,-17.18 60.938,-17.18 220.824,0 359.105,13.28 414.843,39.84 55.711,26.56 83.594,77.34 83.594,152.34 0,57.28 -22.656,105.71 -67.969,145.32 -45.312,39.57 -100.269,59.37 -164.843,59.37 z m -275,-485.94 c -27.098,0 -48.438,-9.37 -64.063,-28.12 -15.625,-18.75 -23.437,-43.75 -23.437,-75 0,-122.93 44.261,-229.18 132.812,-318.748 88.523,-89.602 192.699,-134.383 312.5,-134.383 63.523,0 135.156,21.883 214.844,65.633 79.686,43.75 133.056,65.617 160.156,65.617 9.38,0 16.41,-3.117 21.09,-9.367 4.69,-6.25 7.04,-16.161 7.04,-29.692 0,-14.601 -4.96,-28.91 -14.85,-42.969 -9.91,-14.062 -28.9,-32.031 -57.03,-53.91 -5.22,-4.172 -12.5,-9.91 -21.87,-17.179 -162.505,-129.18 -318.755,-193.75 -468.755,-193.75 -72.926,0 -143.75,13.546 -212.5,40.617 -68.75,27.07 -131.25,66.14 -187.5,117.191 C 139.574,861.281 87.2305,931.059 52.3438,1011.29 17.4297,1091.48 0,1181.6 0,1281.6 c 0,197.9 64.5742,364.06 193.75,498.44 129.148,134.37 287.5,201.56 475,201.56 150,0 277.855,-51.05 383.59,-153.13 105.72,-102.1 158.6,-223.43 158.6,-364.06 0,-22.93 -3.91,-38.28 -11.72,-46.09 -7.81,-7.82 -28.91,-11.72 -63.28,-11.72 l -725.002,9.37"
         style="fill:#231f20;fill-opacity:1;fill-rule:nonzero;stroke:none"
         id="path12" /><path
         d="M 2320.31,1828.47 V 1656.6 c 0,-18.75 -2.61,-31.52 -7.81,-38.28 -5.22,-6.79 -14.06,-10.16 -26.56,-10.16 -28.13,0 -47.41,13.52 -57.81,40.63 -2.1,5.19 -3.13,8.32 -3.13,9.37 -29.17,70.82 -69.29,125 -120.31,162.5 -51.05,37.5 -110.43,56.25 -178.13,56.25 -60.42,0 -110.69,-15.62 -150.78,-46.87 -40.11,-31.25 -60.15,-70.32 -60.15,-117.19 0,-66.68 90.08,-141.68 270.31,-225 29.15,-13.55 51.56,-23.98 67.19,-31.25 141.65,-66.68 233.32,-128.91 275,-186.72 41.65,-57.81 62.5,-135.16 62.5,-232.03 0,-133.35 -48.71,-235.94 -146.1,-307.819 C 2147.12,658.16 2007.28,622.219 1825,622.219 c -142.72,0 -243.51,14.34 -302.34,42.972 -58.87,28.629 -88.28,78.368 -88.28,149.219 0,78.121 4.15,133.84 12.5,167.192 8.32,33.318 22.38,49.998 42.18,49.998 23.95,0 46.34,-27.62 67.19,-82.819 8.33,-23.972 15.63,-42.179 21.88,-54.679 25,-47.93 65.08,-86.993 120.31,-117.192 55.2,-30.219 115.09,-45.308 179.69,-45.308 70.82,0 129.15,20.546 175,61.718 45.82,41.129 68.75,92.961 68.75,155.461 0,71.879 -75,145.319 -225,220.319 -11.48,5.2 -20.32,9.37 -26.57,12.5 -169.8,83.32 -280.22,151.56 -331.25,204.69 -51.05,53.12 -76.56,116.13 -76.56,189.06 0,112.5 47.9,206.76 143.75,282.81 95.83,76.02 215.63,114.06 359.38,114.06 117.7,0 206.25,-11.99 265.62,-35.93 59.38,-23.98 89.06,-59.92 89.06,-107.82"
         style="fill:#231f20;fill-opacity:1;fill-rule:nonzero;stroke:none"
         id="path14" /><path
         d="m 2800,997.223 15.63,521.877 v 18.75 c 0,33.32 -3.91,62.5 -11.72,87.5 -7.82,25 -19.02,42.7 -33.6,53.12 -4.17,3.13 -13.03,6.76 -26.56,10.94 -33.35,11.45 -50,27.07 -50,46.88 0,23.94 18.21,41.13 54.69,51.56 4.15,1.02 7.27,2.07 9.37,3.12 78.13,21.88 154.15,61.45 228.13,118.75 73.95,57.28 111.96,85.94 114.06,85.94 13.53,0 22.39,-2.34 26.56,-7.03 4.15,-4.69 6.25,-13.28 6.25,-25.78 0,-47.93 -1.56,-98.44 -4.68,-151.56 -1.05,-13.56 -1.57,-21.37 -1.57,-23.44 0,-8.35 0.78,-14.06 2.35,-17.19 1.56,-3.12 4.93,-5.23 10.15,-6.25 15.63,0 42.7,16.65 81.25,50 18.75,16.65 33.84,29.69 45.32,39.06 43.75,33.33 92.43,58.33 146.09,75 53.64,16.65 112.23,25 175.78,25 65.63,0 125.51,-9.64 179.69,-28.9 54.15,-19.29 96.34,-46.1 126.56,-80.47 11.45,-12.5 26.03,-29.69 43.75,-51.56 28.13,-35.43 48.95,-53.13 62.5,-53.13 11.45,0 25.51,9.11 42.19,27.34 16.64,18.22 30.2,31.5 40.63,39.85 61.44,45.82 127.07,81.25 196.87,106.25 69.77,25 139.57,37.5 209.38,37.5 155.19,0 266.13,-41.95 332.81,-125.78 66.64,-83.87 100,-228.4 100,-433.6 l -3.13,-473.439 v -35.929 c 0,-32.313 7.04,-57.032 21.1,-74.223 14.06,-17.188 36.72,-28.91 67.97,-35.16 7.26,-5.219 19.76,-9.91 37.5,-14.059 2.07,-1.051 3.63,-1.558 4.68,-1.558 1.02,0 2.58,-0.543 4.69,-1.571 43.75,-12.5 65.63,-27.09 65.63,-43.75 0,-13.551 -8.87,-24.75 -26.57,-33.59 -17.73,-8.839 -41.17,-13.281 -70.31,-13.281 -4.18,0 -12.77,1.84 -25.78,5.469 -13.05,3.66 -23.71,6 -32.03,7.031 -4.18,0 -12.5,0.539 -25,1.559 -71.88,5.203 -132.81,7.812 -182.81,7.812 -23.99,0 -48.71,-0.531 -74.22,-1.562 -25.55,-1.047 -53.91,-2.59 -85.16,-4.688 -10.43,-1.019 -26.33,-3.902 -47.65,-8.59 -21.37,-4.691 -37.78,-7.031 -49.22,-7.031 -26.06,0 -47.93,4.692 -65.63,14.059 -17.73,9.383 -26.56,20.312 -26.56,32.812 0,27.078 27.58,46.879 82.81,59.379 5.2,1.031 8.32,1.559 9.38,1.559 17.69,0 30.19,0.511 37.5,1.562 7.26,1.028 14.06,2.59 20.31,4.688 26.02,10.402 43.2,24.73 51.56,42.972 8.32,18.207 12.5,60.668 12.5,127.34 v 67.189 l 3.13,495.32 c 0,91.64 -20.86,157.27 -62.5,196.87 -41.68,39.57 -110.43,59.38 -206.25,59.38 -92.74,0 -174.49,-19.29 -245.32,-57.82 -70.85,-38.55 -106.25,-81.25 -106.25,-128.12 v -98.44 l -9.37,-565.629 v -32.812 c 0,-30.219 6.76,-53.399 20.31,-69.528 13.52,-16.16 40.08,-30.472 79.69,-42.972 15.62,-5.219 35.39,-10.43 59.37,-15.617 38.52,-9.383 57.82,-21.883 57.82,-37.5 0,-12.5 -4.69,-24.762 -14.07,-36.723 -9.37,-11.957 -19.8,-17.969 -31.25,-17.969 h -67.18 c -14.61,8.352 -33.87,14.602 -57.82,18.75 -23.98,4.149 -57.81,6.25 -101.56,6.25 -50,0 -115.63,-4.18 -196.88,-12.5 -81.25,-8.32 -136.98,-12.5 -167.18,-12.5 -36.48,0 -63.29,3.399 -80.47,10.16 -17.19,6.782 -25.78,16.91 -25.78,30.461 0,28.129 32.27,50.508 96.87,67.188 h 3.13 c 7.27,0 16.13,1.031 26.56,3.133 10.4,2.07 26.02,5.707 46.87,10.929 23.95,7.278 39.85,19.258 47.66,35.938 7.81,16.652 12.23,58.84 13.28,126.562 l 3.13,570.319 v 37.5 c 0,72.9 -19.02,126.29 -57.04,160.15 -38.03,33.84 -98.19,50.79 -180.46,50.79 -70.85,0 -134.92,-9.92 -192.19,-29.69 -57.3,-19.8 -102.1,-46.88 -134.38,-81.25 -26.05,-30.23 -39.6,-78.67 -40.62,-145.31 0,-15.63 -0.54,-28.13 -1.56,-37.5 l -12.5,-525.009 v -42.179 c 0,-28.133 3.9,-51.063 11.71,-68.75 7.82,-17.731 23.17,-39.602 46.1,-65.633 15.62,0 38.52,-5.739 68.75,-17.188 5.2,-2.09 8.84,-3.66 10.94,-4.679 1.02,0 2.07,-0.543 3.12,-1.571 44.78,-18.75 67.19,-37.5 67.19,-56.25 0,-10.402 -4.18,-17.691 -12.5,-21.871 -8.35,-4.148 -22.93,-6.25 -43.75,-6.25 -43.75,0 -109.65,3.121 -197.66,9.371 -88.04,6.25 -154.44,9.379 -199.22,9.379 -42.72,0 -93.75,-2.59 -153.12,-7.808 -10.43,-1.032 -16.68,-1.571 -18.75,-1.571 -7.3,-3.121 -14.06,-5.461 -20.31,-7.031 -6.25,-1.559 -14.07,-2.34 -23.44,-2.34 -10.43,0 -18.24,2.34 -23.44,7.031 -5.22,4.688 -7.81,12.75 -7.81,24.219 0,27.07 22.39,45.82 67.19,56.25 27.07,6.25 47.9,13.012 62.5,20.309 45.82,20.82 69.26,80.722 70.31,179.691 1.02,19.781 1.56,34.879 1.56,45.313"
         style="fill:#231f20;fill-opacity:1;fill-rule:nonzero;stroke:none"
         id="path16" /><path
         d="m 6635.94,906.602 c 0,-34.383 7.54,-59.653 22.66,-75.782 15.09,-16.172 41.4,-27.879 78.9,-35.16 21.88,-5.219 48.95,-8.351 81.25,-9.379 36.45,-1.051 54.69,-10.929 54.69,-29.679 0,-10.43 -3.12,-18.512 -9.37,-24.223 -6.25,-5.738 -17.73,-10.688 -34.38,-14.848 -77.1,-13.551 -166.94,-29.679 -269.53,-48.429 -102.62,-18.75 -158.59,-28.133 -167.97,-28.133 -16.68,0 -30.22,6.25 -40.62,18.75 -10.43,12.5 -15.63,28.64 -15.63,48.441 0,6.25 1.03,17.192 3.13,32.809 2.07,15.633 3.12,27.07 3.12,34.383 0,11.437 -3.12,21.867 -9.37,31.25 -6.25,9.367 -13.04,14.058 -20.32,14.058 -5.22,0 -22.41,-9.91 -51.56,-29.691 -153.12,-108.321 -308.86,-162.5 -467.19,-162.5 -128.12,0 -225.53,35.16 -292.18,105.472 -66.68,70.309 -100,172.661 -100,307.029 0,54.15 1.02,127.86 3.12,221.1 2.07,93.21 3.13,159.61 3.13,199.22 0,4.14 -0.54,22.38 -1.57,54.68 -1.05,32.28 -1.56,61.96 -1.56,89.07 0,14.57 0.51,32.81 1.56,54.68 1.03,21.88 1.57,36.45 1.57,43.75 0,25 -4.18,44.53 -12.5,58.6 -8.35,14.06 -22.93,26.8 -43.75,38.28 -14.6,8.32 -40.38,16.92 -77.35,25.78 -36.99,8.84 -55.47,23.68 -55.47,44.53 0,13.52 6.25,23.68 18.75,30.47 12.5,6.76 30.72,10.16 54.69,10.16 l 364.06,-6.25 c 19.78,0 33.84,-5.47 42.19,-16.41 8.32,-10.94 12.5,-29.96 12.5,-57.03 l -9.37,-585.94 v -15.62 c 0,-143.75 23.16,-246.88 69.53,-309.38 46.34,-62.5 122.12,-93.75 227.34,-93.75 47.9,0 98.68,8.059 152.35,24.219 53.63,16.133 102.34,38.281 146.09,66.402 18.75,11.449 32.03,24.731 39.84,39.848 7.82,15.09 11.72,42.971 11.72,83.591 l 9.38,656.25 c 0,29.15 -4.69,49.22 -14.07,60.16 -9.37,10.94 -36.99,22.12 -82.81,33.59 -1.05,1.03 -2.1,1.81 -3.12,2.35 -1.06,0.51 -3.13,0.78 -6.25,0.78 -16.68,4.15 -40.63,9.88 -71.88,17.19 -52.1,11.44 -78.12,26.02 -78.12,43.75 0,12.5 5.47,22.38 16.4,29.68 10.94,7.28 25.78,10.94 44.53,10.94 l 442.19,-6.25 c 18.75,0 31.25,-2.88 37.5,-8.59 6.25,-5.74 9.38,-21.1 9.38,-46.1 v -18.75 l -15.63,-909.368"
         style="fill:#231f20;fill-opacity:1;fill-rule:nonzero;stroke:none"
         id="path18" /><path
         d="m 7643.75,619.102 c -188.55,0 -341.94,59.367 -460.15,178.117 -118.24,118.75 -177.35,271.881 -177.35,459.381 0,203.12 73.95,372.65 221.88,508.59 147.9,135.94 333.32,203.91 556.25,203.91 154.15,0 266.91,-18.75 338.28,-56.25 71.34,-37.5 107.03,-96.37 107.03,-176.56 0,-36.48 -10.69,-64.34 -32.03,-83.6 -21.37,-19.29 -51.32,-28.9 -89.84,-28.9 -27.1,0 -54.69,10.39 -82.82,31.25 -28.12,20.82 -70.84,67.18 -128.12,139.06 -30.22,36.45 -57.03,59.88 -80.47,70.31 -23.44,10.4 -53.4,15.63 -89.84,15.63 -112.5,0 -206.25,-53.13 -281.25,-159.38 -75,-106.25 -112.5,-242.19 -112.5,-407.81 0,-153.13 45.55,-277.62 136.72,-373.44 91.13,-95.851 208.05,-143.75 350.78,-143.75 59.37,0 126.56,14.84 201.56,44.531 75,29.688 118.75,44.528 131.25,44.528 10.4,0 18.75,-4.438 25,-13.278 6.25,-8.871 9.37,-20.582 9.37,-35.16 0,-39.59 -57.81,-85.691 -173.43,-138.281 C 7898.44,645.422 7775,619.102 7643.75,619.102"
         style="fill:#231f20;fill-opacity:1;fill-rule:nonzero;stroke:none"
         id="path20" /><path
         d="M 56.5859,6.48828 V 282.031 H 215.785 l -8.719,-17.82 H 74.7695 V 158.078 H 193.707 V 140.641 H 74.7695 V 23.9297 H 210.777 L 215.785,6.48828 H 56.5859"
         style="fill:#231f20;fill-opacity:1;fill-rule:nonzero;stroke:none"
         id="path22" /><path
         d="m 247.328,73.2891 16.328,12.6093 c 5.938,-22.5195 16.387,-39.6679 31.36,-51.4765 14.964,-11.8203 33.89,-17.7227 56.777,-17.7227 22.387,0 40.477,5.6797 54.27,17.0703 13.792,11.3711 20.691,26.0899 20.691,44.1602 0,9.0195 -1.766,17.1797 -5.289,24.4923 -3.527,7.289 -8.629,13.289 -15.309,18 -10.636,7.789 -27.832,16.008 -51.582,24.668 -5.07,1.859 -8.906,3.281 -11.504,4.269 -29.191,11.129 -49.386,22.36 -60.582,33.672 -11.195,11.328 -16.789,25.34 -16.789,42.028 0,18.8 7.172,34.019 21.524,45.652 14.343,11.617 33.336,17.437 56.961,17.437 19.793,0 37.261,-4.148 52.418,-12.429 15.152,-8.289 28.234,-20.91 39.242,-37.848 l -11.317,-15.59 c -11.504,17.559 -23.629,30.34 -36.367,38.309 -12.746,7.988 -27.402,11.969 -43.976,11.969 -17.321,0 -31.512,-4.348 -42.582,-13.079 -11.075,-8.71 -16.606,-19.832 -16.606,-33.3 0,-12.5 4.203,-22.852 12.617,-31.078 8.407,-8.231 26.903,-17.911 55.477,-29.043 1.976,-0.739 5.195,-1.981 9.648,-3.707 27.09,-10.274 46.758,-20.293 59.004,-30.063 8.039,-6.559 14.16,-14.367 18.371,-23.48 4.203,-9.0785 6.309,-19.1371 6.309,-30.1371 0,-23.1406 -8.692,-42.0235 -26.07,-56.6914 C 402.969,7.32813 380.238,0 352.164,0 326.059,0 304.07,6.28125 286.199,18.8281 c -17.875,12.5508 -30.832,30.711 -38.871,54.461"
         style="fill:#231f20;fill-opacity:1;fill-rule:nonzero;stroke:none"
         id="path24" /><path
         d="M 701.547,65.6797 C 690.66,43.5313 676.965,27.1211 660.449,16.4102 643.938,5.71875 623.926,0.371094 600.426,0.371094 c -35.996,0 -64.016,12.730506 -84.055,38.218706 -20.039,25.4805 -30.058,61.0391 -30.058,106.6912 0,44.899 10.234,79.938 30.707,105.117 20.468,25.161 48.894,37.75 85.261,37.75 20.782,0 38.688,-4.359 53.715,-13.089 15.027,-8.707 27.797,-22.11 38.317,-40.161 l -11.875,-12.617 c -9.778,16.199 -21.34,28.418 -34.7,36.649 -13.359,8.218 -28.265,12.34 -44.715,12.34 -30.8,0 -54.707,-11.051 -71.714,-33.122 -17.012,-22.089 -25.512,-53.226 -25.512,-93.429 0,-40.078 8.719,-71.2502 26.16,-93.5081 17.441,-22.2695 41.75,-33.4023 72.922,-33.4023 18.676,0 35.031,5.043 49.074,15.1328 14.039,10.0703 25.82,25.1875 35.348,45.3594 l 12.246,-12.6211"
         style="fill:#231f20;fill-opacity:1;fill-rule:nonzero;stroke:none"
         id="path26" /><path
         d="m 949.254,143.98 c 0,37.231 -9.344,67.629 -28.02,91.2 -18.679,23.558 -42.429,35.34 -71.25,35.34 -28.699,0 -52.324,-11.782 -70.879,-35.34 -18.554,-23.571 -27.832,-53.969 -27.832,-91.2 0,-37.109 9.247,-67.4214 27.743,-90.9214 18.488,-23.5 42.144,-35.25 70.968,-35.25 28.946,0 52.727,11.75 71.344,35.25 18.613,23.5 27.926,53.8124 27.926,90.9214 z m -99.27,144.168 c 16.079,0 31.047,-3.148 44.903,-9.457 13.851,-6.312 26.164,-15.472 36.926,-27.461 11.875,-13.492 20.902,-29.32 27.089,-47.5 6.18,-18.191 9.278,-38.109 9.278,-59.75 0,-21.652 -3.098,-41.589 -9.278,-59.8316 -6.187,-18.2578 -15.214,-34 -27.089,-47.2265 -10.891,-12 -23.227,-21.0938 -37.016,-27.28127 C 881,3.46094 866.063,0.371094 849.984,0.371094 833.902,0.371094 819,3.46094 805.27,9.64063 791.539,15.8281 779.23,24.9219 768.344,36.9219 c -11.875,13.4765 -20.938,29.3164 -27.184,47.5 -6.25,18.1801 -9.367,38.0391 -9.367,59.5581 0,21.77 3.117,41.782 9.367,60.032 6.246,18.238 15.309,33.968 27.184,47.218 11.008,12.122 23.41,21.301 37.203,27.551 13.789,6.25 28.601,9.367 44.437,9.367"
         style="fill:#231f20;fill-opacity:1;fill-rule:nonzero;stroke:none"
         id="path28" /><path
         d="M 1026.07,6.48828 V 282.031 h 19.3 V 23.9297 h 122.46 V 6.48828 h -141.76"
         style="fill:#231f20;fill-opacity:1;fill-rule:nonzero;stroke:none"
         id="path30" /><path
         d="m 1239.82,97.7813 h 135.63 L 1307.92,263.66 Z M 1184.71,6.48828 1298.45,282.031 h 19.67 L 1429.45,6.48828 h -17.44 l -30.06,74.40232 h -149 L 1201.78,6.48828 h -17.07"
         style="fill:#231f20;fill-opacity:1;fill-rule:nonzero;stroke:none"
         id="path32" /><path
         d="m 1538.55,73.2891 16.33,12.6093 c 5.94,-22.5195 16.38,-39.6679 31.36,-51.4765 14.96,-11.8203 33.89,-17.7227 56.77,-17.7227 22.39,0 40.48,5.6797 54.28,17.0703 13.78,11.3711 20.68,26.0899 20.68,44.1602 0,9.0195 -1.76,17.1797 -5.28,24.4923 -3.53,7.289 -8.63,13.289 -15.31,18 -10.64,7.789 -27.83,16.008 -51.58,24.668 -5.08,1.859 -8.91,3.281 -11.51,4.269 -29.19,11.129 -49.39,22.36 -60.58,33.672 -11.2,11.328 -16.79,25.34 -16.79,42.028 0,18.8 7.17,34.019 21.52,45.652 14.35,11.617 33.34,17.437 56.97,17.437 19.79,0 37.26,-4.148 52.41,-12.429 15.15,-8.289 28.23,-20.91 39.25,-37.848 l -11.32,-15.59 c -11.51,17.559 -23.63,30.34 -36.37,38.309 -12.74,7.988 -27.4,11.969 -43.97,11.969 -17.32,0 -31.52,-4.348 -42.59,-13.079 -11.07,-8.71 -16.6,-19.832 -16.6,-33.3 0,-12.5 4.2,-22.852 12.61,-31.078 8.41,-8.231 26.91,-17.911 55.48,-29.043 1.98,-0.739 5.2,-1.981 9.65,-3.707 27.09,-10.274 46.76,-20.293 59,-30.063 8.04,-6.559 14.16,-14.367 18.37,-23.48 4.21,-9.0785 6.31,-19.1371 6.31,-30.1371 0,-23.1406 -8.69,-42.0235 -26.07,-56.6914 C 1694.19,7.32813 1671.46,0 1643.38,0 c -26.1,0 -48.09,6.28125 -65.96,18.8281 -17.87,12.5508 -30.83,30.711 -38.87,54.461"
         style="fill:#231f20;fill-opacity:1;fill-rule:nonzero;stroke:none"
         id="path34" /><path
         d="m 1792.01,282.031 h 18.74 V 104.828 c 0,-29.5663 6.92,-51.6483 20.78,-66.2382 13.85,-14.6015 35,-21.8906 63.46,-21.8906 28.69,0 49.87,7.7617 63.55,23.2891 13.66,15.5117 20.5,39.4219 20.5,71.7107 v 170.332 h 16.7 V 112.809 c 0,-37.8481 -8.42,-66.059 -25.24,-84.6098 -16.82,-18.55857 -42.49,-27.828106 -77,-27.828106 -34.14,0 -59.59,8.558596 -76.35,25.687506 -16.76,17.1406 -25.14,43.1406 -25.14,78.0314 v 177.941"
         style="fill:#231f20;fill-opacity:1;fill-rule:nonzero;stroke:none"
         id="path36" /><path
         d="m 2086.1,140.27 h 74.96 c 22.27,0 39.27,5.25 51.02,15.769 11.75,10.512 17.63,25.789 17.63,45.832 0,20.41 -6,35.91 -18,46.481 -12,10.578 -29.56,15.859 -52.69,15.859 H 2086.1 Z M 2067.92,6.48828 V 282.031 h 85.16 c 31.67,0 55.6,-6.679 71.81,-20.043 16.2,-13.359 24.3,-33.16 24.3,-59.379 0,-24.621 -7.73,-44.07 -23.19,-58.347 -15.46,-14.293 -36.49,-21.434 -63.08,-21.434 H 2086.1 V 6.48828 h -18.18"
         style="fill:#231f20;fill-opacity:1;fill-rule:nonzero;stroke:none"
         id="path38" /><path
         d="M 2307.27,6.48828 V 282.031 h 159.2 l -8.72,-17.82 h -132.3 V 158.078 h 118.94 V 140.641 H 2325.45 V 23.9297 h 136.01 l 5.01,-17.44142 h -159.2"
         style="fill:#231f20;fill-opacity:1;fill-rule:nonzero;stroke:none"
         id="path40" /><path
         d="m 2545.51,153.629 h 80.53 c 23.99,0 41.71,4.512 53.16,13.543 11.44,9.027 17.16,23.008 17.16,41.937 0,18.301 -5.84,32.071 -17.53,41.289 -11.69,9.211 -29.29,13.813 -52.79,13.813 h -80.53 z M 2527.33,6.48828 V 282.031 h 95.74 c 30.3,0 53.28,-6.101 68.93,-18.269 15.65,-12.192 23.47,-30.16 23.47,-53.91 0,-18.68 -5.5,-34.301 -16.51,-46.864 -11.01,-12.539 -26.29,-20.617 -45.83,-24.207 L 2718.81,6.48828 h -20.59 L 2633.65,136 h -88.14 V 6.48828 h -18.18"
         style="fill:#231f20;fill-opacity:1;fill-rule:nonzero;stroke:none"
         id="path42" /><path
         d="M 2781.53,6.48828 V 282.031 h 19.48 V 6.48828 h -19.48"
         style="fill:#231f20;fill-opacity:1;fill-rule:nonzero;stroke:none"
         id="path44" /><path
         d="m 3078.77,143.98 c 0,37.231 -9.34,67.629 -28.01,91.2 -18.68,23.558 -42.43,35.34 -71.25,35.34 -28.7,0 -52.33,-11.782 -70.88,-35.34 -18.56,-23.571 -27.83,-53.969 -27.83,-91.2 0,-37.109 9.24,-67.4214 27.74,-90.9214 18.49,-23.5 42.14,-35.25 70.97,-35.25 28.94,0 52.72,11.75 71.34,35.25 18.61,23.5 27.92,53.8124 27.92,90.9214 z m -99.26,144.168 c 16.08,0 31.04,-3.148 44.9,-9.457 13.85,-6.312 26.16,-15.472 36.92,-27.461 11.88,-13.492 20.91,-29.32 27.09,-47.5 6.18,-18.191 9.28,-38.109 9.28,-59.75 0,-21.652 -3.1,-41.589 -9.28,-59.8316 -6.18,-18.2578 -15.21,-34 -27.09,-47.2265 -10.89,-12 -23.22,-21.0938 -37.01,-27.28127 -13.8,-6.17969 -28.73,-9.269536 -44.81,-9.269536 -16.09,0 -30.99,3.089846 -44.72,9.269536 -13.73,6.18747 -26.04,15.28127 -36.92,27.28127 -11.88,13.4765 -20.94,29.3164 -27.19,47.5 -6.25,18.1801 -9.37,38.0391 -9.37,59.5581 0,21.77 3.12,41.782 9.37,60.032 6.25,18.238 15.31,33.968 27.19,47.218 11,12.122 23.4,21.301 37.2,27.551 13.79,6.25 28.6,9.367 44.44,9.367"
         style="fill:#231f20;fill-opacity:1;fill-rule:nonzero;stroke:none"
         id="path46" /><path
         d="m 3173.77,153.629 h 80.53 c 24,0 41.72,4.512 53.16,13.543 11.44,9.027 17.16,23.008 17.16,41.937 0,18.301 -5.84,32.071 -17.53,41.289 -11.69,9.211 -29.29,13.813 -52.79,13.813 h -80.53 z M 3155.59,6.48828 V 282.031 h 95.74 c 30.31,0 53.28,-6.101 68.93,-18.269 15.65,-12.192 23.48,-30.16 23.48,-53.91 0,-18.68 -5.51,-34.301 -16.52,-46.864 -11.01,-12.539 -26.29,-20.617 -45.83,-24.207 L 3347.08,6.48828 h -20.6 L 3261.91,136 h -88.14 V 6.48828 h -18.18"
         style="fill:#231f20;fill-opacity:1;fill-rule:nonzero;stroke:none"
         id="path48" /><path
         d="m 3588.84,264.211 h -66.61 V 23.9297 h 64.94 c 35.87,0 63.49,9.9219 82.85,29.7891 19.36,19.8398 29.04,48.2032 29.04,85.0622 0,41.571 -9.25,72.86 -27.74,93.891 -18.5,21.027 -45.99,31.539 -82.48,31.539 z m 1.86,17.82 c 41.19,0 72.76,-12.222 94.72,-36.652 21.95,-24.43 32.93,-59.469 32.93,-105.109 0,-42.5591 -11.59,-75.4887 -34.79,-98.8012 -23.19,-23.3204 -55.94,-34.98052 -98.24,-34.98052 h -81.27 V 282.031 h 86.65"
         style="fill:#231f20;fill-opacity:1;fill-rule:nonzero;stroke:none"
         id="path50" /><path
         d="M 3775.69,6.48828 V 282.031 h 159.2 l -8.72,-17.82 h -132.3 V 158.078 h 118.94 V 140.641 H 3793.87 V 23.9297 h 136.01 l 5.01,-17.44142 h -159.2"
         style="fill:#231f20;fill-opacity:1;fill-rule:nonzero;stroke:none"
         id="path52" /><path
         d="M 4092.6,6.48828 V 282.031 h 29.69 l 97.97,-240.2927 93.14,240.2927 h 30.43 V 6.48828 h -17.62 V 268.672 L 4224.9,6.48828 h -8.35 L 4110.04,266.809 V 6.48828 h -17.44"
         style="fill:#231f20;fill-opacity:1;fill-rule:nonzero;stroke:none"
         id="path54" /><path
         d="M 4535.32,372.57 H 4560 l -49.73,-65.121 h -14.85 z m -119.31,-90.539 h 18.74 V 104.828 c 0,-29.5663 6.92,-51.6483 20.78,-66.2382 13.85,-14.6015 35,-21.8906 63.46,-21.8906 28.69,0 49.88,7.7617 63.54,23.2891 13.68,15.5117 20.51,39.4219 20.51,71.7107 v 170.332 h 16.7 V 112.809 c 0,-37.8481 -8.42,-66.059 -25.23,-84.6098 -16.83,-18.55857 -42.49,-27.828106 -77.01,-27.828106 -34.14,0 -59.58,8.558596 -76.35,25.687506 -16.76,17.1406 -25.14,43.1406 -25.14,78.0314 v 177.941"
         style="fill:#231f20;fill-opacity:1;fill-rule:nonzero;stroke:none"
         id="path56" /><path
         d="m 4662.6,73.2891 16.33,12.6093 c 5.94,-22.5195 16.39,-39.6679 31.36,-51.4765 14.96,-11.8203 33.88,-17.7227 56.78,-17.7227 22.38,0 40.47,5.6797 54.27,17.0703 13.79,11.3711 20.69,26.0899 20.69,44.1602 0,9.0195 -1.76,17.1797 -5.3,24.4923 -3.51,7.289 -8.62,13.289 -15.3,18 -10.64,7.789 -27.83,16.008 -51.58,24.668 -5.08,1.859 -8.91,3.281 -11.51,4.269 -29.19,11.129 -49.38,22.36 -60.57,33.672 -11.2,11.328 -16.8,25.34 -16.8,42.028 0,18.8 7.17,34.019 21.53,45.652 14.34,11.617 33.33,17.437 56.96,17.437 19.78,0 37.26,-4.148 52.41,-12.429 15.16,-8.289 28.23,-20.91 39.25,-37.848 l -11.32,-15.59 c -11.5,17.559 -23.63,30.34 -36.37,38.309 -12.74,7.988 -27.4,11.969 -43.97,11.969 -17.33,0 -31.52,-4.348 -42.59,-13.079 -11.06,-8.71 -16.6,-19.832 -16.6,-33.3 0,-12.5 4.2,-22.852 12.62,-31.078 8.4,-8.231 26.9,-17.911 55.47,-29.043 1.98,-0.739 5.2,-1.981 9.65,-3.707 27.09,-10.274 46.76,-20.293 59.01,-30.063 8.03,-6.559 14.16,-14.367 18.37,-23.48 4.19,-9.0785 6.3,-19.1371 6.3,-30.1371 0,-23.1406 -8.69,-42.0235 -26.07,-56.6914 C 4818.25,7.32813 4795.51,0 4767.44,0 c -26.11,0 -48.09,6.28125 -65.96,18.8281 -17.88,12.5508 -30.84,30.711 -38.88,54.461"
         style="fill:#231f20;fill-opacity:1;fill-rule:nonzero;stroke:none"
         id="path58" /><path
         d="M 4924.04,6.48828 V 282.031 h 19.48 V 6.48828 h -19.48"
         style="fill:#231f20;fill-opacity:1;fill-rule:nonzero;stroke:none"
         id="path60" /><path
         d="m 5219.06,65.6797 c -10.89,-22.1484 -24.59,-38.5586 -41.1,-49.2695 -16.52,-10.69145 -36.53,-16.039106 -60.03,-16.039106 -35.99,0 -64.01,12.730506 -84.05,38.218706 -20.04,25.4805 -30.06,61.0391 -30.06,106.6912 0,44.899 10.24,79.938 30.71,105.117 20.47,25.161 48.89,37.75 85.26,37.75 20.78,0 38.68,-4.359 53.72,-13.089 15.02,-8.707 27.79,-22.11 38.31,-40.161 l -11.87,-12.617 c -9.78,16.199 -21.34,28.418 -34.7,36.649 -13.36,8.218 -28.27,12.34 -44.72,12.34 -30.8,0 -54.7,-11.051 -71.71,-33.122 -17.01,-22.089 -25.51,-53.226 -25.51,-93.429 0,-40.078 8.72,-71.2502 26.16,-93.5081 17.44,-22.2695 41.75,-33.4023 72.92,-33.4023 18.67,0 35.04,5.043 49.07,15.1328 14.04,10.0703 25.82,25.1875 35.35,45.3594 l 12.25,-12.6211"
         style="fill:#231f20;fill-opacity:1;fill-rule:nonzero;stroke:none"
         id="path62" /><path
         d="m 5288.08,97.7813 h 135.64 L 5356.18,263.66 Z M 5232.97,6.48828 5346.71,282.031 h 19.67 L 5477.71,6.48828 h -17.44 L 5430.21,80.8906 H 5281.22 L 5250.04,6.48828 h -17.07"
         style="fill:#231f20;fill-opacity:1;fill-rule:nonzero;stroke:none"
         id="path64" /><path
         d="m 5700.92,264.211 h -66.61 V 23.9297 h 64.94 c 35.87,0 63.49,9.9219 82.84,29.7891 19.37,19.8398 29.05,48.2032 29.05,85.0622 0,41.571 -9.25,72.86 -27.74,93.891 -18.49,21.027 -45.99,31.539 -82.48,31.539 z m 1.86,17.82 c 41.19,0 72.76,-12.222 94.72,-36.652 21.96,-24.43 32.93,-59.469 32.93,-105.109 0,-42.5591 -11.6,-75.4887 -34.78,-98.8012 C 5772.45,18.1484 5739.7,6.48828 5697.4,6.48828 h -81.27 V 282.031 h 86.65"
         style="fill:#231f20;fill-opacity:1;fill-rule:nonzero;stroke:none"
         id="path66" /><path
         d="M 5887.77,6.48828 V 282.031 h 159.2 l -8.72,-17.82 h -132.3 V 158.078 h 118.94 V 140.641 H 5905.95 V 23.9297 h 136.01 l 5.01,-17.44142 h -159.2"
         style="fill:#231f20;fill-opacity:1;fill-rule:nonzero;stroke:none"
         id="path68" /><path
         d="M 6400.06,65.6797 C 6389.17,43.5313 6375.47,27.1211 6358.97,16.4102 6342.45,5.71875 6322.44,0.371094 6298.94,0.371094 c -36,0 -64.01,12.730506 -84.05,38.218706 -20.04,25.4805 -30.06,61.0391 -30.06,106.6912 0,44.899 10.23,79.938 30.7,105.117 20.48,25.161 48.9,37.75 85.27,37.75 20.78,0 38.68,-4.359 53.72,-13.089 15.02,-8.707 27.79,-22.11 38.31,-40.161 l -11.88,-12.617 c -9.77,16.199 -21.34,28.418 -34.7,36.649 -13.35,8.218 -28.27,12.34 -44.71,12.34 -30.8,0 -54.71,-11.051 -71.71,-33.122 -17.01,-22.089 -25.52,-53.226 -25.52,-93.429 0,-40.078 8.72,-71.2502 26.16,-93.5081 17.45,-22.2695 41.75,-33.4023 72.92,-33.4023 18.68,0 35.04,5.043 49.08,15.1328 14.04,10.0703 25.82,25.1875 35.35,45.3594 l 12.24,-12.6211"
         style="fill:#231f20;fill-opacity:1;fill-rule:nonzero;stroke:none"
         id="path70" /><path
         d="m 6469.09,97.7813 h 135.63 L 6537.18,263.66 Z M 6413.98,6.48828 6527.72,282.031 h 19.67 L 6658.72,6.48828 h -17.45 l -30.05,74.40232 h -149 L 6431.05,6.48828 h -17.07"
         style="fill:#231f20;fill-opacity:1;fill-rule:nonzero;stroke:none"
         id="path72" /><path
         d="M 6721.62,6.48828 V 264.211 h -85.54 v 17.82 h 190.37 v -17.82 H 6741.1 V 6.48828 h -19.48"
         style="fill:#231f20;fill-opacity:1;fill-rule:nonzero;stroke:none"
         id="path74" /><path
         d="m 6857.44,97.7813 h 135.63 L 6925.53,263.66 Z M 6802.33,6.48828 6916.07,282.031 h 19.67 L 7047.07,6.48828 h -17.45 l -30.05,74.40232 h -149 L 6819.4,6.48828 h -17.07"
         style="fill:#231f20;fill-opacity:1;fill-rule:nonzero;stroke:none"
         id="path76" /><path
         d="M 7088.63,6.48828 V 282.031 h 19.29 V 23.9297 h 122.47 V 6.48828 h -141.76"
         style="fill:#231f20;fill-opacity:1;fill-rule:nonzero;stroke:none"
         id="path78" /><path
         d="m 7257.48,282.031 h 18.74 V 104.828 c 0,-29.5663 6.92,-51.6483 20.78,-66.2382 13.84,-14.6015 35,-21.8906 63.45,-21.8906 28.7,0 49.89,7.7617 63.55,23.2891 13.67,15.5117 20.51,39.4219 20.51,71.7107 v 170.332 h 16.7 V 112.809 c 0,-37.8481 -8.42,-66.059 -25.24,-84.6098 -16.82,-18.55857 -42.49,-27.828106 -77,-27.828106 -34.14,0 -59.59,8.558596 -76.36,25.687506 -16.76,17.1406 -25.13,43.1406 -25.13,78.0314 v 177.941"
         style="fill:#231f20;fill-opacity:1;fill-rule:nonzero;stroke:none"
         id="path80" /><path
         d="M 7533.38,6.48828 V 282.031 h 20.97 L 7713.55,37.6602 V 282.031 h 17.44 V 6.48828 h -17.07 L 7550.83,255.68 V 6.48828 h -17.45"
         style="fill:#231f20;fill-opacity:1;fill-rule:nonzero;stroke:none"
         id="path82" /><path
         d="M 7871.26,138.41 V 6.48828 H 7852.9 V 138.41 l -88.14,143.621 h 20.6 l 77.18,-126.551 77.38,126.551 h 19.48 L 7871.26,138.41"
         style="fill:#231f20;fill-opacity:1;fill-rule:nonzero;stroke:none"
         id="path84" /><path
         d="m 8001.7,97.7813 h 135.64 L 8069.8,263.66 Z M 7946.6,6.48828 8060.34,282.031 H 8080 L 8191.33,6.48828 h -17.44 L 8143.83,80.8906 H 7994.84 L 7963.67,6.48828 h -17.07"
         style="fill:#231f20;fill-opacity:1;fill-rule:nonzero;stroke:none"
         id="path86" /></g></g></svg>
