<?xml version="1.0" encoding="UTF-8" standalone="no"?>
<svg
   version="1.0"
   width="784.33423"
   height="784.33423"
   id="svg2"
   sodipodi:docname="logo_HFMTK.svg"
   inkscape:version="1.1.2 (0a00cf5339, 2022-02-04)"
   xmlns:inkscape="http://www.inkscape.org/namespaces/inkscape"
   xmlns:sodipodi="http://sodipodi.sourceforge.net/DTD/sodipodi-0.dtd"
   xmlns="http://www.w3.org/2000/svg"
   xmlns:svg="http://www.w3.org/2000/svg"
   xmlns:rdf="http://www.w3.org/1999/02/22-rdf-syntax-ns#"
   xmlns:cc="http://creativecommons.org/ns#"
   xmlns:dc="http://purl.org/dc/elements/1.1/">
  <metadata
     id="metadata12">
    <rdf:RDF>
      <cc:Work
         rdf:about="">
        <dc:format>image/svg+xml</dc:format>
        <dc:type
           rdf:resource="http://purl.org/dc/dcmitype/StillImage" />
      </cc:Work>
    </rdf:RDF>
  </metadata>
  <sodipodi:namedview
     pagecolor="#ffffff"
     bordercolor="#666666"
     borderopacity="1"
     objecttolerance="10"
     gridtolerance="10"
     guidetolerance="10"
     inkscape:pageopacity="0"
     inkscape:pageshadow="2"
     inkscape:window-width="3840"
     inkscape:window-height="2096"
     id="namedview10"
     showgrid="false"
     inkscape:pagecheckerboard="true"
     fit-margin-top="0"
     fit-margin-left="0"
     fit-margin-right="0"
     fit-margin-bottom="0"
     inkscape:zoom="1.26625"
     inkscape:cx="585.58736"
     inkscape:cy="422.11254"
     inkscape:window-x="0"
     inkscape:window-y="27"
     inkscape:window-maximized="1"
     inkscape:current-layer="svg2"
     inkscape:document-rotation="0"
     width="784.33423px" />
  <defs
     id="defs4" />
  <g
     id="g863"
     transform="translate(-28.478451,98.723166)">
    <path
       d="m 311.0222,264.8888 v 18.3764 h 6.2481 v -40.693 h -6.2481 v 17.4382 h -15.4401 v -17.4382 h -6.251 v 40.693 h 6.251 v -18.3764 z m 28.3793,19.2509 c 8.1265,0 13.1284,-6.1216 13.1284,-17.3146 0,-11.0039 -5.1284,-16.9401 -13.1293,-16.9401 -8,0 -13.1882,5.9362 -13.1882,17.1293 0,11.0038 5.0646,17.1254 13.1882,17.1254 m 9e-4,-4.442 c -4.4999,0 -7.193,-2.9962 -7.193,-12.3745 v -1.0609 c 0,-9.2509 2.5039,-11.8117 7.1921,-11.8117 4.6892,0 7.1264,2.5608 7.1264,12.1245 v 1.0048 c 0,9.1207 -2.6863,12.1178 -7.1264,12.1178 m 32.5106,4.442 c 3.9363,0 7.1206,-1.25 9.1872,-2.4343 l -0.943,-4.3089 c -2.7442,1.2394 -4.8726,2.1207 -7.8726,2.1207 -4.6892,0 -7.25,-2.6931 -7.25,-12.3137 v -1.001 c 0,-9.4372 2.4971,-11.5058 7.25,-11.5058 2.5608,0 4.8147,0.6255 7.6235,1.5039 l 0.8784,-4.3803 c -2.1245,-0.9971 -5.25,-1.9353 -8.8735,-1.9353 -8.4411,0 -12.8774,5.5675 -12.8774,16.9999 0,11.3823 4.5559,17.2548 12.8774,17.2548 z m 22.6245,-27.1283 c 2.3735,-1.5 4.2528,-2.4402 7.1303,-2.4402 2.9382,0 4.8117,1.25 4.8117,4.9412 v 23.7528 h 5.7481 v -23.0048 c 0,-7.2529 -3.3108,-10.3754 -8.8098,-10.3754 -2.5637,0 -4.5049,0.6225 -5.9383,1.3175 l -2.942,3.3687 V 238.383 h -5.752 v 44.8822 h 5.752 z m 35.3831,27.1283 c 7.4402,0 11.1245,-3.9971 11.1245,-9.7499 0,-6.1921 -3,-8.4392 -8.6254,-9.9392 -5.0599,-1.3137 -6.8717,-1.8157 -6.8717,-5.251 0,-3.6882 1.9344,-4.6882 5.8128,-4.6882 3.1843,0 5.1892,0.6245 7.6245,1.4392 l 0.8755,-4.1902 c -1.9383,-0.9971 -4.8765,-1.8754 -8.8784,-1.8754 -6.4961,0 -10.7529,3.0627 -10.7529,9.6274 0,6.0588 3.3166,8.1901 7.9411,9.4372 6.0068,1.5627 7.3784,2.0656 7.3784,5.693 0,3.8138 -2.1892,5.1284 -6.194,5.1284 -3.2452,-9e-4 -6.1226,-1.0048 -8.2471,-1.943 l -0.6911,4.25 c 1.8764,0.9382 4.999,2.0617 9.5038,2.0617 z m 30.194,0 c 3.9363,0 7.1264,-1.25 9.1902,-2.4343 l -0.9392,-4.3089 c -2.7491,1.2394 -4.8803,2.1207 -7.8765,2.1207 -4.6892,0 -7.2529,-2.6931 -7.2529,-12.3137 v -1.001 c 0,-9.4372 2.502,-11.5058 7.2529,-11.5058 2.5637,0 4.8108,0.6255 7.6274,1.5039 l 0.8717,-4.3803 c -2.1246,-0.9971 -5.2539,-1.9353 -8.8736,-1.9353 -8.4421,0 -12.8822,5.5675 -12.8822,16.9999 0,11.3823 4.5695,17.2548 12.8822,17.2548 z m 22.6274,-27.1283 c 2.3764,-1.5 4.249,-2.4402 7.1264,-2.4402 2.9392,0 4.8157,1.25 4.8157,4.9412 v 23.7528 h 5.7548 v -23.0048 c 0,-7.2529 -3.3176,-10.3754 -8.8166,-10.3754 -2.5676,0 -4.5019,0.6225 -5.9421,1.3175 l -2.9382,3.3687 V 238.383 h -5.7481 v 44.8822 h 5.7481 z m 45.2586,20.1911 c -2.1254,1.4334 -4.0627,2.3755 -7.1245,2.3755 -2.8127,0 -4.6882,-1.3108 -4.6882,-5.3745 v -23.6969 h -5.7519 v 23.0057 c 0,7.2491 3.3745,10.4411 8.7548,10.4411 2.5608,0 4.6245,-0.5579 6.1255,-1.2461 l 2.8137,-3.4421 2.0598,4 h 3.5657 v -32.7586 h -5.7549 z m 16.6303,6.0627 h 5.7519 V 238.383 h -5.7519 z m 20.6322,-14.5646 h 18.7558 v -3.5618 c 0,-9.3774 -3.5685,-15.2538 -11.7587,-15.2538 -7.8108,0 -13.0038,5.3774 -13.0038,17.0694 0,11.3726 4.6892,17.1853 13.6274,17.1853 4.1303,0 7.9411,-1.4324 9.8784,-2.4942 l -0.9392,-4.249 c -2.806,1.1805 -5.5,2.1207 -8.5608,2.1207 -5.5647,0 -7.8803,-2.6931 -7.9991,-10.8166 z m 0,-4.1274 c 0.307,-8.3137 2.8128,-10.4383 7.0618,-10.4383 4.1274,0 6.1226,2.4971 6.1226,9.4412 l 10e-4,0.9971 z m 43.8147,-9.75 v 28.442 h 5.693 v -28.442 h 7.2539 v -4.3166 h -7.2539 v -5.1873 c 0,-1.998 0.8108,-2.8764 3.0647,-2.8764 h 4.8697 l 0.2519,-3.1892 c -1.3716,-0.7442 -3.4971,-1.4363 -6.2519,-1.4363 -4.8118,0 -7.6274,2.8735 -7.6274,8.945 v 3.7442 h -3.9981 v 4.3166 z m 36.7586,-8.7519 c 2.0029,0 3.6236,-1.5029 3.6236,-3.6883 0,-2.1911 -1.6217,-3.7471 -3.6236,-3.7471 -1.9334,0 -3.6226,1.556 -3.6226,3.7471 0,2.1854 1.6883,3.6883 3.6226,3.6883 z m -10.8726,0 c 1.9344,0 3.6226,-1.5029 3.6226,-3.6883 0,-2.1911 -1.6882,-3.7471 -3.6226,-3.7471 -2.0019,0 -3.6332,1.556 -3.6332,3.7471 0,2.1854 1.6313,3.6883 3.6332,3.6883 z m 11.2471,31.1312 c -2.1245,1.4334 -4.0656,2.3755 -7.1235,2.3755 -2.8156,0 -4.6892,-1.3108 -4.6892,-5.3745 l 10e-4,-23.6969 h -5.752 v 23.0057 c 0,7.2491 3.3746,10.4411 8.7481,10.4411 2.5676,0 4.6313,-0.5579 6.1293,-1.2461 l 2.8089,-3.4421 2.0676,4 h 3.5618 v -32.7586 h -5.752 z m 21.8784,-22.2529 -2.1245,-4.443 h -3.4971 v 32.7586 h 5.7509 v -25.7548 c 1.8765,-1.3108 3.7491,-2.3146 6.2491,-2.3146 2.1283,0 3.3774,0.3754 4.5656,0.8745 l 1.0598,-5.2471 c -0.749,-0.4392 -2.1283,-0.9382 -4.1274,-0.9382 -1.6853,0 -3.1158,0.3754 -4.5627,1.0608 z"
       style="fill:#1b1918;fill-rule:evenodd"
       id="path840" />
    <path
       d="m 289.3311,362.2729 h 5.25 v -20.1882 l -1.0637,-18.0666 2.6873,13.4382 7.0029,24.8166 h 6.5646 l 7.3118,-25.1931 2.8765,-13.0617 -1.1265,17.9971 v 20.2577 h 6.1284 v -40.6988 h -8.5666 l -7.8147,27.0115 -1.7461,11.2529 -1.7519,-11.2529 -7.502,-27.0115 h -8.25 z m 63.9469,-6.0618 c -2.1216,1.4363 -4.0637,2.3745 -7.1236,2.3745 -2.8156,0 -4.692,-1.3137 -4.692,-5.3774 l 9e-4,-23.6901 h -5.75 v 23.0048 c 0,7.249 3.3755,10.4353 8.752,10.4353 2.5637,0 4.6254,-0.5618 6.1293,-1.2442 l 2.8098,-3.4382 2.0618,3.9971 h 3.5676 v -32.7548 h -5.7558 z m 23.694,6.9401 c 7.4401,0 11.1274,-4.0038 11.1274,-9.7538 0,-6.1882 -3.0029,-8.4392 -8.6284,-9.9392 -5.0608,-1.3137 -6.8716,-1.8127 -6.8716,-5.2538 0,-3.6854 1.9344,-4.6892 5.8127,-4.6892 3.1873,0 5.1853,0.6255 7.6236,1.4363 l 0.8755,-4.1892 c -1.9373,-0.9913 -4.8726,-1.8697 -8.8803,-1.8697 -6.4971,0 -10.75,3.0598 -10.75,9.6235 0,6.0628 3.3127,8.1873 7.9401,9.4382 6.0039,1.5695 7.3755,2.0676 7.3755,5.6931 0,3.8108 -2.1892,5.1206 -6.1873,5.1206 -3.248,0 -6.1254,-0.9971 -8.2509,-1.9353 l -0.6873,4.25 c 1.8726,0.9373 4.999,2.0685 9.5,2.0685 m 22.444,-39.2036 c 2.0019,0 3.6882,-1.4324 3.6882,-3.6206 0,-2.1883 -1.6863,-3.6844 -3.6882,-3.6844 -2.0058,0 -3.749,1.4961 -3.749,3.6844 0,2.1882 1.7432,3.6216 3.749,3.6216 z m -2.9421,38.3253 h 5.7548 v -32.7548 h -5.7548 z m 22.2596,-11.1303 3.4363,-4.9383 8.5608,16.0686 h 6.3166 l -7.693,-14.1853 -4.1236,-4.1902 11.1892,-14.3793 h -6.1255 l -12.6225,17.1254 1.0617,-9.0685 v -20.1882 h -5.7509 v 44.8861 h 5.7509 z m 54.8813,5.0685 c -2.1246,1.4363 -4.0618,2.3745 -7.1265,2.3745 -2.8127,0 -4.6892,-1.3137 -4.6892,-5.3774 v -23.6901 h -5.748 v 23.0048 c 0,7.249 3.3745,10.4353 8.748,10.4353 2.5637,0 4.6274,-0.5618 6.1294,-1.2442 l 2.8156,-3.4382 2.057,3.9971 h 3.5656 v -32.7548 h -5.7519 z m 21.8822,-22.5067 -2.1216,-4.1863 h -3.5078 v 32.7548 h 5.752 V 336.019 c 2.3735,-1.5 4.249,-2.4372 7.1235,-2.4372 2.946,0 4.8185,1.25 4.8185,4.9343 v 23.7568 h 5.751 v -23.0048 c 0,-7.2558 -3.3166,-10.3755 -8.8156,-10.3755 -2.5647,0 -4.4991,0.6255 -5.9392,1.3108 z m 45.3841,-2.0579 c -1.6892,-1.4431 -4.0695,-2.7539 -7.5019,-2.7539 -6.5647,0 -11.7577,4.9952 -11.7577,16.9401 0,11.2529 4.0695,17.1255 11.693,17.1255 1.9382,0 3.4971,-0.4324 4.3755,-0.8716 l 3.4401,-3.6911 1.9344,3.8774 h 3.5647 v -44.8861 h -5.7481 z m 0,24.3744 c -2.1892,1.8157 -3.7529,3 -6.3745,3 -4.4402,0 -6.9431,-3.1293 -6.9431,-11.8783 v -2.3745 c 0,-8.9981 2.5029,-11.1863 6.8746,-11.1863 2.943,0 5.1283,1.3098 6.443,2.3146 z m 36.194,-29.3793 v 35.6313 h 6.2519 v -35.6313 h 10.5019 v -5.0675 h -27.2557 v 5.0675 z m 36.3165,16.251 -5.3803,0.6255 c -8.3735,1.0009 -11.8774,3.5048 -11.8774,10.1882 0,6.944 4.3176,9.4449 9.3774,9.4449 2.3157,0 4.1921,-0.5057 5.4421,-1.0646 l 2.7471,-3.1854 2.3166,3.6246 c 0.8716,0.3088 1.9334,0.4324 2.9344,0.4324 1.7538,0 3,-0.5618 3.6264,-1.0608 l -0.1901,-2.8137 h -1.3147 c -1.3716,0 -1.9923,-0.4392 -1.9923,-2.1911 l 10e-4,-15.3697 c 0,-8.945 -3.0656,-12.6303 -10.5705,-12.6303 -4.4401,0 -7.999,1.3108 -10.9372,2.5608 l 0.8755,4.443 c 3.5646,-1.2538 6.6843,-2.1283 9.6911,-2.1283 4.1274,0 5.25,2.4343 5.25,5.7529 z m 0,13.4411 c -1.192,1.3735 -2.9971,2.6872 -6.1264,2.6872 -3.6873,0 -5.5676,-1.5627 -5.5676,-5.3146 v -0.4981 c 0,-4.25 1.9373,-5.693 6.6911,-6.1853 l 5.0029,-0.6284 z m 22.2519,-22.6293 -2.1245,-4.1863 h -3.5067 v 32.7548 h 5.7538 V 336.019 c 2.3813,-1.5 4.2568,-2.4372 7.1313,-2.4372 2.9382,0 4.8108,1.25 4.8108,4.9343 l 0.001,23.7568 h 5.748 v -23.0048 c 0,-7.2558 -3.3108,-10.3755 -8.8137,-10.3755 -2.5598,0 -4.5009,0.6255 -5.9353,1.3108 z m 25.6313,28.5685 h 22.0695 v -4.4363 h -11.3765 l -6.0646,0.749 3.3745,-3.3755 13.8754,-20.4449 v -5.2471 h -21.0675 v 4.749 h 10.3822 l 5.8707,-0.499 -2.9962,3.0656 -14.0675,20.4981 z m 48.194,-20.0087 1.0694,-7.5589 v -13.1312 h -6.3165 v 40.6988 h 6.3165 v -14.6255 l 3.6197,-4.8813 11.3157,19.5068 h 6.9362 L 721.6,343.771 l -4.6274,-3.502 15.0038,-18.6949 h -6.5656 z m 46.8889,-17.1824 c 1.9952,0 3.6235,-1.5029 3.6235,-3.6911 0,-2.1911 -1.6283,-3.751 -3.6235,-3.751 -1.944,0 -3.6293,1.5599 -3.6293,3.751 0,2.1882 1.6853,3.6911 3.6293,3.6911 z m -10.8822,0 c 1.944,0 3.6293,-1.5029 3.6293,-3.6911 0,-2.1911 -1.6853,-3.751 -3.6303,-3.751 -1.9952,0 -3.6226,1.5599 -3.6226,3.751 0,2.1882 1.6274,3.6911 3.6226,3.6911 m 5.5647,38.0694 c 8.1245,0 13.1303,-6.1254 13.1303,-17.3185 0,-11.0009 -5.1284,-16.9401 -13.1303,-16.9401 -7.9991,0 -13.1882,5.9392 -13.1882,17.1255 0,11.0077 5.0598,17.1331 13.1882,17.1331 z m 0,-4.443 c -4.4981,0 -7.1853,-2.9961 -7.1853,-12.3735 v -1.0609 c 0,-9.2548 2.4961,-11.8185 7.1853,-11.8185 4.6892,0 7.1274,2.5637 7.1274,12.1245 v 1.0039 c 0,9.1284 -2.6873,12.1245 -7.1274,12.1245 z m 22.0048,3.5647 h 5.7509 v -44.8793 h -5.7509 z m 22.2557,-28.5685 -2.1245,-4.1863 h -3.5038 v 32.7548 h 5.7548 V 336.019 c 2.3735,-1.5 4.249,-2.4372 7.1264,-2.4372 2.9392,0 4.8079,1.25 4.8079,4.9343 l 10e-4,23.7568 h 5.751 v -23.0048 c 0,-7.2558 -3.3099,-10.3755 -8.8099,-10.3755 -2.5637,0 -4.5009,0.6255 -5.9382,1.3108 z"
       style="fill:#1b1918;fill-rule:evenodd"
       id="path842" />
    <path
       d="m 251.3447,272.3714 c 0,-22.1641 -6.1651,-40.247 -32.5116,-40.247 -22.9816,0 -35.0299,10.9469 -43.4362,17.5781 -3.362,-10.7075 -16.5376,-17.5781 -28.5849,-17.5781 -22.1409,0 -34.471,10.9469 -42.8813,17.5781 -3.0791,-11.9787 -5.3204,-17.5781 -8.9613,-17.5781 -1.1245,0 -2.5242,0.2529 -4.2037,0.7615 l -18.6119,6.3649 c -1.9624,0.5154 -3.0792,1.5328 -3.0792,2.8098 0,5.8523 5.3205,3.8176 5.3205,39.7384 v 28.4913 l 3.5511,0.0405 h 6.2558 l 6.4739,0.0396 v 51.9758 l 12.6969,-0.0396 c 3.3649,0 3.9267,-0.7654 3.9267,-3.5646 v -89.4237 c 3.6409,-3.0627 15.5791,-10.4449 27.3474,-10.4449 10.6487,0 11.7751,11.7191 11.7751,21.3996 v 30.0578 h 16.4044 v 51.9758 h 12.5705 c 3.3581,0 3.9237,-0.7654 3.9237,-3.5646 v -89.4237 c 3.6409,-3.0627 15.583,-10.4449 27.3513,-10.4449 10.6477,0 11.7655,11.7191 11.7655,21.3996 v 30.0578 h 16.5173 v 51.9758 h 12.4662 c 3.3591,0 3.9238,-0.7654 3.9238,-3.5646 z"
       style="fill:#1b1918;fill-rule:evenodd"
       id="path844" />
    <path
       d="m 28.7773,283.4882 c 0,-6.9797 5.6535,-12.6264 12.6265,-12.6264 6.9729,0 12.6264,5.6467 12.6264,12.6264 0,6.9701 -5.6535,12.6235 -12.6264,12.6235 -6.973,0 -12.6265,-5.6534 -12.6265,-12.6235 z"
       style="fill:#1b1918;fill-rule:evenodd"
       id="path846" />
    <path
       d="m 28.7773,333.688 c 0,-6.9701 5.6535,-12.6226 12.6265,-12.6226 6.9729,-0.001 12.6264,5.6525 12.6264,12.6226 0,6.9797 -5.6535,12.6302 -12.6264,12.6302 -6.973,-9e-4 -12.6265,-5.6505 -12.6265,-12.6302 z"
       style="fill:#1b1918;fill-rule:evenodd"
       id="path848" />
  </g>
</svg>
